<?xml version="1.0" encoding="utf-8"?>
<!-- Generator: Adobe Illustrator 19.0.0, SVG Export Plug-In . SVG Version: 6.00 Build 0)  -->
<svg version="1.1" id="Слой_1" xmlns="http://www.w3.org/2000/svg" xmlns:xlink="http://www.w3.org/1999/xlink" x="0px" y="0px"
	 viewBox="-208 299 195 195" style="enable-background:new -208 299 195 195;" xml:space="preserve">
<style type="text/css">
	.st0{display:none;fill:#12100E;}
	.st1{fill:#5880C1;}
</style>
<title>Monogram</title>
<desc>Created with Sketch.</desc>
<g id="Page-1">
	<g id="Monogram">
		<rect id="Rectangle-path" x="-208" y="299" class="st0" width="195" height="195"/>
		<path id="Shape" class="st1" d="M-161.5,364.2c0.2-1.6-0.5-3.2-1.7-4.3l-12.2-14.7V343h38l29.4,64.4l25.8-64.4H-46v2.2l-10.5,10
			c-0.9,0.7-1.3,1.8-1.2,2.9v73.7c-0.2,1.1,0.3,2.2,1.2,2.9l10.2,10v2.2h-51.4v-2.2l10.6-10.3c1-1,1-1.3,1-2.9V372l-29.4,74.7h-4
			l-34.2-74.7v50.1c-0.3,2.1,0.4,4.2,1.9,5.7l13.8,16.7v2.2h-39v-2.2l13.8-16.7c1.5-1.5,2.1-3.7,1.8-5.7V364.2z"/>
	</g>
</g>
</svg>
